<svg xmlns="http://www.w3.org/2000/svg" viewBox="0 0 520 420" width="520" height="420" role="img" aria-label="単位円における三角形，扇形，外側の三角形の関係">
  <defs>
    <marker id="arrow" markerWidth="10" markerHeight="10" refX="8" refY="3" orient="auto" markerUnits="strokeWidth">
      <path d="M0,0 L0,6 L9,3 z" fill="#607d8b" />
    </marker>
  </defs>
  <rect width="100%" height="100%" fill="#fff8e8"/>
  <line x1="60" y1="340" x2="470" y2="340" stroke="#607d8b" stroke-width="2" marker-end="url(#arrow)" />
  <line x1="60" y1="340" x2="60" y2="40" stroke="#607d8b" stroke-width="2" marker-end="url(#arrow)" />
  <path d="M 340 340 A 280 280 0 0 0 274.5 160.0" fill="none" stroke="#607d8b" stroke-width="4" />
  <line x1="60" y1="340" x2="340" y2="340" stroke="#607d8b" stroke-width="3" />
  <line x1="60" y1="340" x2="274.5" y2="160.0" stroke="#607d8b" stroke-width="3" />
  <line x1="60" y1="340" x2="340" y2="105" stroke="#607d8b" stroke-width="3" />
  <line x1="340" y1="340" x2="340" y2="105" stroke="#607d8b" stroke-width="2" stroke-dasharray="7 7" />
  <line x1="274.5" y1="160.0" x2="274.5" y2="340" stroke="#607d8b" stroke-width="2" stroke-dasharray="3 6" />
  <circle cx="60" cy="340" r="5" fill="#607d8b" />
  <text x="42" y="362" font-family="Arial, sans-serif" font-size="18" fill="#607d8b">O</text>
  <circle cx="340" cy="340" r="5" fill="#607d8b" />
  <text x="332" y="366" font-family="Arial, sans-serif" font-size="18" fill="#607d8b">A</text>
  <circle cx="274.5" cy="160.0" r="5" fill="#607d8b" />
  <text x="242" y="150" font-family="Arial, sans-serif" font-size="18" fill="#607d8b">P</text>
  <circle cx="340" cy="105" r="5" fill="#607d8b" />
  <text x="350" y="100" font-family="Arial, sans-serif" font-size="18" fill="#607d8b">T</text>
  <path d="M 125 340 A 65 65 0 0 0 110 298" fill="none" stroke="#607d8b" stroke-width="2" />
  <text x="132" y="311" font-family="Arial, sans-serif" font-size="18" fill="#607d8b">x</text>
  <text x="348" y="225" font-family="Arial, sans-serif" font-size="18" fill="#607d8b">tan x</text>
  <text x="165" y="235" font-family="Arial, sans-serif" font-size="18" fill="#607d8b">1</text>
  <text x="474" y="346" font-family="Arial, sans-serif" font-size="18" fill="#607d8b">x</text>
  <text x="52" y="32" font-family="Arial, sans-serif" font-size="18" fill="#607d8b">y</text>
</svg>